# Blender 3.3.1
# www.blender.org
o Circle
v 0.000000 0.000000 0.000000
v 0.000000 0.000000 -5.000000
v -0.975452 0.000000 -4.903926
v -1.913417 0.000000 -4.619398
v -2.777851 0.000000 -4.157348
v -3.535534 0.000000 -3.535534
v -4.157348 0.000000 -2.777851
v -4.619398 0.000000 -1.913417
v -4.903926 0.000000 -0.975452
v -5.000000 0.000000 0.000000
v -4.903926 0.000000 0.975452
v -4.619398 0.000000 1.913417
v -4.157348 0.000000 2.777851
v -3.535534 0.000000 3.535534
v -2.777851 0.000000 4.157348
v -1.913417 0.000000 4.619398
v -0.975452 0.000000 4.903926
v 0.000000 0.000000 5.000000
v 0.975452 0.000000 4.903926
v 1.913417 0.000000 4.619398
v 2.777851 0.000000 4.157348
v 3.535534 0.000000 3.535534
v 4.157348 0.000000 2.777851
v 4.619398 0.000000 1.913417
v 4.903926 0.000000 0.975452
v 5.000000 0.000000 0.000000
v 4.903926 0.000000 -0.975452
v 4.619398 0.000000 -1.913417
v 4.157348 0.000000 -2.777851
v 3.535534 0.000000 -3.535534
v 2.777851 0.000000 -4.157348
v 1.913417 0.000000 -4.619398
v 0.975452 0.000000 -4.903926
vn -0.0000 1.0000 -0.0000
s 0
f 1//1 2//1 3//1
f 1//1 3//1 4//1
f 1//1 4//1 5//1
f 1//1 5//1 6//1
f 1//1 6//1 7//1
f 1//1 7//1 8//1
f 1//1 8//1 9//1
f 1//1 9//1 10//1
f 1//1 10//1 11//1
f 1//1 11//1 12//1
f 1//1 12//1 13//1
f 1//1 13//1 14//1
f 1//1 14//1 15//1
f 1//1 15//1 16//1
f 1//1 16//1 17//1
f 1//1 17//1 18//1
f 1//1 18//1 19//1
f 1//1 19//1 20//1
f 1//1 20//1 21//1
f 1//1 21//1 22//1
f 1//1 22//1 23//1
f 1//1 23//1 24//1
f 1//1 24//1 25//1
f 1//1 25//1 26//1
f 1//1 26//1 27//1
f 1//1 27//1 28//1
f 1//1 28//1 29//1
f 1//1 29//1 30//1
f 1//1 30//1 31//1
f 1//1 31//1 32//1
f 1//1 32//1 33//1
f 1//1 33//1 2//1
