# Blender 3.3.1
# www.blender.org
o Cube
v 1.000000 -0.047545 -1.000000
v 1.000000 -0.047545 1.000000
v -2.970769 -0.047544 -1.000000
v -2.970769 -0.047544 1.000000
v -3.128140 1.980982 -0.684865
v -2.577828 -0.047544 -1.000000
v -2.577828 -0.047544 1.000000
v -2.577828 1.394541 1.000000
v -2.577828 1.395315 -1.000000
v 0.645944 -0.047545 1.000000
v 0.645944 1.394541 1.000000
v 0.645944 1.395315 -1.000000
v 0.645944 -0.047545 -1.000000
v 1.000000 -0.047545 -0.682509
v -2.970769 1.392037 -0.682509
v -2.970769 -0.047544 -0.682509
v 1.000000 1.393569 -0.682509
v -2.577828 2.119109 -0.682509
v 0.645944 2.119109 -0.682509
v -2.970769 -0.047544 0.667003
v 1.000000 1.393569 0.667003
v -2.577828 2.119109 0.667003
v 0.645944 2.119109 0.667003
v 1.000000 -0.047545 0.667003
v -2.970769 1.392037 0.667003
v 1.061935 -0.047545 -1.061935
v -3.058357 1.334062 -0.682509
v 1.061935 -0.047545 1.061935
v 1.087589 -0.047545 -0.682509
v -3.032703 -0.047544 -1.061935
v -2.577828 -0.047544 -1.087589
v 0.645944 -0.047545 1.087589
v -3.032703 -0.047544 1.061935
v 1.087589 1.334062 0.667003
v -2.577828 -0.047544 1.087589
v 0.645944 -0.047545 -1.087589
v -3.058357 -0.047544 0.667003
v -3.058357 -0.047544 -0.682509
v 1.087589 -0.047545 0.667003
v -2.579794 2.002676 -1.157383
v 0.648094 1.997919 1.157378
v -3.128140 1.389956 -0.684865
v 0.648094 1.389969 1.157378
v 0.648094 1.390074 -1.157378
v 0.648094 2.002677 -1.157378
v -2.579794 1.997918 1.157383
v -2.579794 1.389969 1.157383
v -2.579794 1.390074 -1.157383
v 1.157374 1.991681 0.669268
v 1.157374 1.389956 0.669268
v -3.128143 1.980982 0.669268
v -3.128143 1.389956 0.669268
v 1.157371 1.991682 -0.684865
v 1.157371 1.389956 -0.684865
v -3.058357 1.334062 -0.682509
v -3.032703 1.334062 -1.061935
v 1.061935 1.334062 1.061935
v 0.645944 1.334137 -1.087589
v 1.061935 1.334062 -1.061935
v -3.032703 1.334062 1.061935
v -2.577828 1.334068 1.087589
v -2.577828 1.334137 -1.087589
v -3.058357 1.334062 0.667003
v 1.087589 1.334062 0.667003
v 1.087589 1.334062 -0.682509
v 1.087589 1.334062 -0.682509
v -3.173804 1.980982 -0.689824
v -3.113710 1.958468 -1.144619
v -2.583968 2.002676 -1.203126
v 0.652633 1.997919 1.203086
v 1.143540 1.961183 1.144030
v -3.113906 1.957175 1.144428
v -2.583973 1.997918 1.203126
v 1.143345 1.962943 -1.144224
v 0.652627 2.002677 -1.203087
v 1.203059 1.991681 0.674036
v 1.203037 1.991682 -0.689812
v -3.173826 1.980982 0.674048
v -2.583973 1.334062 1.203126
v -3.173804 1.334062 -0.689824
v -3.113998 1.334062 -1.144339
v 0.652633 1.334062 1.203086
v 1.143623 1.334062 1.143948
v 0.652627 1.334062 -1.203087
v 1.143492 1.334062 -1.144078
v -3.114129 1.334062 1.144209
v -2.583968 1.334062 -1.203126
v 1.203059 1.334062 0.674036
v 1.203037 1.334062 -0.689812
v -3.173826 1.334062 0.674048
v -2.577828 1.334069 1.087589
v 0.645944 1.334068 1.087589
v 0.645944 -0.047545 0.667003
v -2.577828 -0.047544 0.667004
v -2.577828 -0.047544 -0.682509
v 0.645944 -0.047545 -0.682509
v -1.258353 1.693944 1.157381
v -0.556510 1.693944 1.157380
v -1.258049 1.389969 1.157381
v -0.558624 1.389969 1.157380
v -1.257564 1.394541 1.000000
v -0.557664 1.394541 1.000000
v -1.258353 1.693944 1.200387
v -0.556510 1.693944 1.200386
v -1.258049 1.359161 1.187387
v -0.558624 1.359129 1.187353
v -1.257564 1.351553 0.998751
v -0.557664 1.351553 0.998751
v -1.215271 1.394541 1.000000
v -0.596344 1.394541 1.000000
vn -0.0000 -1.0000 -0.0000
vn -1.0000 -0.0000 -0.0000
vn -0.0000 -0.0000 -1.0000
vn -0.0000 -0.0000 1.0000
vn -0.0000 -1.0000 -0.0001
vn -0.0000 1.0000 -0.0000
vn 1.0000 -0.0000 -0.0000
vn 0.9997 0.0189 0.0130
vn -0.0000 0.9708 0.2399
vn 0.2418 0.9703 -0.0000
vn 0.0608 -0.0354 -0.9975
vn -0.0000 -0.9994 0.0333
vn 0.2153 0.9531 0.2128
vn 0.0132 -0.9999 -0.0000
vn -0.0563 -0.0000 0.9984
vn -0.2182 0.9524 0.2128
vn 0.9959 -0.0000 -0.0909
vn -0.9979 -0.0000 0.0648
vn -0.2434 0.9699 -0.0000
vn -0.0002 -1.0000 0.0006
vn -0.0000 0.9712 -0.2381
vn 0.0002 -1.0000 0.0006
vn -0.0000 -0.9996 -0.0290
vn 0.9977 -0.0000 -0.0675
vn -0.0563 -0.0000 -0.9984
vn 0.1038 -0.0000 -0.9946
vn 0.1077 -0.0000 0.9942
vn 0.2154 0.9536 -0.2105
vn -0.9951 -0.0000 0.0988
vn 0.9921 -0.0000 0.1256
vn 0.9915 -0.0000 -0.1302
vn 0.1194 -0.0000 0.9928
vn -0.1098 -0.0000 -0.9940
vn -0.1101 -0.0000 0.9939
vn 0.1191 -0.0000 -0.9929
vn -0.9920 -0.0000 0.1264
vn -0.0632 -0.0369 0.9973
vn -0.9977 -0.0000 -0.0675
vn -0.9914 -0.0000 -0.1310
vn 0.9981 -0.0311 -0.0530
vn -0.1041 -0.0000 -0.9946
vn 0.9979 -0.0000 0.0648
vn 0.0616 -0.0000 0.9981
vn -0.9997 0.0206 0.0143
vn -0.0230 -0.9997 -0.0000
vn 0.0631 -0.0367 0.9973
vn 0.0616 -0.0000 -0.9981
vn 0.9959 -0.0000 0.0910
vn -0.9997 0.0205 -0.0143
vn -0.9951 -0.0000 -0.0987
vn -0.0609 -0.0356 -0.9975
vn -0.0836 0.9952 -0.0514
vn 1.0000 -0.0002 0.0061
vn -0.1080 -0.0000 0.9942
vn -1.0000 -0.0010 -0.0000
vn -0.0000 0.0290 -0.9996
vn -0.0000 -0.0389 0.9992
vn -0.0000 -0.9992 0.0401
vn 1.0000 -0.0061 -0.0062
vn -1.0000 -0.0024 -0.0025
vn 0.9981 -0.0312 0.0531
vn 0.0149 0.0219 -0.9996
vn -0.9295 0.3570 0.0923
vn 0.0834 0.9937 0.0750
vn 0.0964 0.3706 -0.9238
vn -0.0832 0.9947 0.0609
vn 0.9394 0.3320 0.0858
vn -0.0967 0.3701 -0.9240
vn 0.0894 0.9932 -0.0746
vn -0.9289 0.3586 -0.0921
vn 0.0995 0.3824 0.9186
vn 0.9921 0.0001 0.1255
vn 0.9915 0.0002 -0.1300
vn 0.1196 -0.0001 0.9928
vn -0.1102 -0.0004 -0.9939
vn -0.1105 -0.0003 0.9939
vn 0.1194 -0.0002 -0.9929
vn -0.9920 0.0003 0.1260
vn -0.0153 0.0231 0.9996
vn -0.9915 0.0004 -0.1305
vn 0.9997 0.0188 -0.0131
vn -0.9978 -0.0338 0.0578
vn 0.0155 0.0228 0.9996
vn -0.9978 -0.0337 -0.0577
vn -0.0147 0.0222 -0.9996
vn -0.0823 0.9966 0.0075
vn 0.0053 0.9988 -0.0487
vn -0.2360 0.9440 -0.2305
vn 1.0000 0.0048 0.0049
vn -1.0000 -0.0009 -0.0009
vn -0.0000 -0.0388 0.9992
vn -0.0000 -0.9992 0.0403
vn 1.0000 -0.0070 -0.0000
vn -1.0000 0.0001 -0.0031
s 0
f 4//1 35//1 33//1
f 3//1 38//1 30//1
f 15//2 20//2 25//2
f 1//1 36//1 26//1
f 6//3 12//3 13//3
f 101//4 7//4 109//4
f 79//5 60//5 61//5
f 63//3 20//3 37//3
f 1//1 29//1 14//1
f 18//6 23//6 19//6
f 17//7 24//7 14//7
f 16//1 6//1 95//1
f 47//8 91//8 8//8
f 46//9 23//9 22//9
f 49//10 19//10 23//10
f 64//11 50//11 88//11
f 48//12 12//12 9//12
f 70//13 76//13 23//13
f 15//14 52//14 42//14
f 10//2 92//2 11//2
f 3//1 31//1 6//1
f 2//1 39//1 28//1
f 2//1 32//1 10//1
f 62//7 6//7 31//7
f 4//1 37//1 20//1
f 35//15 60//15 33//15
f 14//4 66//4 17//4
f 82//1 57//1 83//1
f 73//16 22//16 78//16
f 43//4 98//4 100//4
f 48//3 45//3 44//3
f 48//17 69//17 40//17
f 51//2 42//2 52//2
f 33//18 63//18 37//18
f 18//19 51//19 22//19
f 84//20 59//20 58//20
f 19//21 40//21 18//21
f 59//1 89//1 65//1
f 60//1 90//1 63//1
f 56//22 87//22 62//22
f 88//1 57//1 64//1
f 99//23 8//23 101//23
f 59//24 29//24 26//24
f 31//25 56//25 62//25
f 54//7 49//7 50//7
f 50//26 76//26 88//26
f 77//27 54//27 89//27
f 75//28 19//28 77//28
f 43//29 70//29 41//29
f 71//30 88//30 76//30
f 89//31 74//31 77//31
f 82//32 71//32 70//32
f 87//33 68//33 69//33
f 72//34 79//34 73//34
f 74//35 84//35 75//35
f 90//36 72//36 78//36
f 55//37 42//37 80//37
f 38//38 56//38 30//38
f 68//39 80//39 67//39
f 80//1 56//1 55//1
f 48//40 62//40 87//40
f 52//41 78//41 51//41
f 7//7 91//7 35//7
f 57//42 39//42 64//42
f 32//43 57//43 92//43
f 92//44 43//44 11//44
f 24//3 34//3 39//3
f 17//45 50//45 21//45
f 54//46 66//46 89//46
f 36//47 59//47 26//47
f 13//2 58//2 36//2
f 73//48 47//48 46//48
f 44//49 58//49 12//49
f 16//4 27//4 38//4
f 44//50 75//50 84//50
f 52//51 63//51 90//51
f 68//52 5//52 40//52
f 95//1 13//1 96//1
f 96//1 1//1 14//1
f 7//1 93//1 10//1
f 10//1 24//1 2//1
f 4//1 94//1 7//1
f 94//1 96//1 93//1
f 94//1 16//1 95//1
f 93//1 14//1 24//1
f 100//53 108//53 102//53
f 47//4 97//4 46//4
f 41//4 97//4 98//4
f 67//54 42//54 5//54
f 99//55 103//55 97//55
f 11//23 100//23 102//23
f 109//56 108//56 107//56
f 101//56 109//56 107//56
f 103//57 106//57 104//57
f 106//58 107//58 108//58
f 110//56 102//56 108//56
f 100//59 104//59 106//59
f 97//6 104//6 98//6
f 99//60 107//60 105//60
f 109//4 10//4 110//4
f 102//4 10//4 11//4
f 4//1 7//1 35//1
f 3//1 16//1 38//1
f 15//2 16//2 20//2
f 1//1 13//1 36//1
f 6//3 9//3 12//3
f 101//4 8//4 7//4
f 79//1 86//1 60//1
f 63//3 25//3 20//3
f 1//1 26//1 29//1
f 18//6 22//6 23//6
f 17//7 21//7 24//7
f 16//1 3//1 6//1
f 47//61 79//61 91//61
f 46//9 41//9 23//9
f 49//10 53//10 19//10
f 64//62 21//62 50//62
f 48//12 44//12 12//12
f 23//63 41//63 70//63
f 70//64 71//64 76//64
f 76//65 49//65 23//65
f 15//14 25//14 52//14
f 10//2 32//2 92//2
f 3//1 30//1 31//1
f 2//1 24//1 39//1
f 2//1 28//1 32//1
f 62//7 9//7 6//7
f 4//1 33//1 37//1
f 35//15 91//15 60//15
f 14//4 29//4 66//4
f 82//5 92//5 57//5
f 78//66 72//66 73//66
f 73//67 46//67 22//67
f 22//68 51//68 78//68
f 43//4 41//4 98//4
f 48//3 40//3 45//3
f 48//17 87//17 69//17
f 51//2 5//2 42//2
f 33//18 60//18 63//18
f 18//19 5//19 51//19
f 84//1 85//1 59//1
f 19//21 45//21 40//21
f 59//1 85//1 89//1
f 60//1 86//1 90//1
f 56//1 81//1 87//1
f 88//1 83//1 57//1
f 99//23 47//23 8//23
f 59//24 66//24 29//24
f 31//25 30//25 56//25
f 54//7 53//7 49//7
f 50//26 49//26 76//26
f 77//27 53//27 54//27
f 77//69 74//69 75//69
f 75//70 45//70 19//70
f 19//71 53//71 77//71
f 43//29 82//29 70//29
f 71//72 83//72 88//72
f 89//73 85//73 74//73
f 82//74 83//74 71//74
f 87//75 81//75 68//75
f 72//76 86//76 79//76
f 74//77 85//77 84//77
f 90//78 86//78 72//78
f 55//79 15//79 42//79
f 38//38 55//38 56//38
f 68//80 81//80 80//80
f 80//1 81//1 56//1
f 48//81 9//81 62//81
f 52//41 90//41 78//41
f 7//7 8//7 91//7
f 57//42 28//42 39//42
f 32//43 28//43 57//43
f 92//82 82//82 43//82
f 24//3 21//3 34//3
f 17//45 54//45 50//45
f 54//83 17//83 66//83
f 36//47 58//47 59//47
f 13//2 12//2 58//2
f 73//48 79//48 47//48
f 44//84 84//84 58//84
f 16//4 15//4 27//4
f 44//50 45//50 75//50
f 52//85 25//85 63//85
f 40//86 69//86 68//86
f 68//87 67//87 5//87
f 5//88 18//88 40//88
f 95//1 6//1 13//1
f 96//1 13//1 1//1
f 7//1 94//1 93//1
f 10//1 93//1 24//1
f 4//1 20//1 94//1
f 94//1 95//1 96//1
f 94//1 20//1 16//1
f 93//1 96//1 14//1
f 100//89 106//89 108//89
f 47//4 99//4 97//4
f 41//4 46//4 97//4
f 67//54 80//54 42//54
f 99//90 105//90 103//90
f 11//23 43//23 100//23
f 109//56 110//56 108//56
f 103//91 105//91 106//91
f 106//92 105//92 107//92
f 100//93 98//93 104//93
f 97//6 103//6 104//6
f 99//94 101//94 107//94
f 109//4 7//4 10//4
f 102//4 110//4 10//4
